<?xml version="1.0" standalone="no"?>
<!DOCTYPE svg PUBLIC "-//W3C//DTD SVG 20010904//EN"
 "http://www.w3.org/TR/2001/REC-SVG-20010904/DTD/svg10.dtd">
<svg version="1.0" xmlns="http://www.w3.org/2000/svg"
 width="512.000000pt" height="512.000000pt" viewBox="0 0 512.000000 512.000000"
 preserveAspectRatio="xMidYMid meet">
<metadata>
Created by potrace 1.11, written by Peter Selinger 2001-2013
</metadata>
<g transform="translate(0.000000,512.000000) scale(0.100000,-0.100000)"
fill="#000000" stroke="none">
<path d="M2508 5115 c-2 -3 -13 -6 -24 -8 -68 -10 -125 -56 -359 -288 -1389
-1375 -2094 -2079 -2107 -2102 -18 -34 -18 -117 0 -152 13 -26 67 -101 83
-115 3 -3 32 -39 64 -80 73 -92 90 -107 138 -120 58 -17 92 0 185 91 l82 81 1
-1076 c1 -592 2 -1079 3 -1083 1 -5 6 -24 10 -43 21 -89 113 -184 201 -209 29
-8 541 -11 1780 -11 1633 0 1743 1 1789 17 66 24 126 79 161 149 l30 59 3
1089 c1 600 5 1092 7 1095 3 2 42 -32 88 -76 93 -91 128 -106 188 -79 19 8 41
21 49 28 22 19 205 249 218 274 19 37 24 88 11 133 -11 38 -48 79 -286 315
l-273 272 0 705 0 705 -29 46 c-23 35 -39 50 -68 58 -26 8 -140 10 -350 8
-296 -3 -313 -4 -339 -24 -15 -11 -36 -37 -47 -58 -18 -34 -20 -59 -20 -312 0
-151 -2 -274 -4 -274 -1 0 -119 116 -262 258 -664 661 -674 670 -737 698 -53
23 -173 42 -186 29z m177 -1769 c52 -12 148 -61 203 -105 233 -185 308 -545
171 -823 -108 -222 -311 -351 -524 -335 -100 8 -121 13 -202 53 -157 76 -272
226 -321 416 -15 58 -19 102 -16 185 1 59 4 115 7 123 43 162 102 267 200 356
63 58 152 108 228 128 54 14 193 15 254 2z m315 -1600 c297 -65 551 -311 649
-630 35 -113 45 -179 45 -293 0 -70 -4 -86 -25 -117 -47 -70 23 -66 -1108 -66
-985 0 -1023 1 -1059 19 -56 29 -76 71 -76 161 0 180 46 352 136 505 39 66
119 169 163 208 61 55 77 67 126 99 30 19 73 43 94 52 22 10 47 21 56 26 13 6
94 27 174 44 35 7 788 0 825 -8z"/>
</g>
</svg>
